# xmcd CD database file
#
# Track frame offsets:
#	150
#	25220
#	68401
#	105795
#	139162
#	183076
#	233281
#	283465
#
# Disc length: 4741 seconds
#
# Revision: 0
# Processed by: cddbd v1.5.1PL0 Copyright (c) Steve Scherf et al.
# Submitted via: CDex 1.51
#
DISCID=5d128308
DTITLE=Timeline - Know Hope
DYEAR=2002
DGENRE=Jazz
TTITLE0=Road rage
TTITLE1=3 Degrees N
TTITLE2=Know hope
TTITLE3=Fractions
TTITLE4=In the Footprints of others
TTITLE5=Think Again/ Think before you think
TTITLE6=Universality/ Waa Daa Daa
TTITLE7=Nightlife
EXTD=YEAR: 2002
EXTT0=
EXTT1=
EXTT2=
EXTT3=
EXTT4=
EXTT5=
EXTT6=
EXTT7=
PLAYORDER=
